{"glyphs":{"0":{"ha":799,"x_min":72,"x_max":757,"o":"m 365 0 q 251 22 304 0 q 158 84 197 44 q 95 176 118 124 q 72 289 72 229 l 72 671 q 95 783 72 731 q 158 876 118 836 q 251 938 197 915 q 365 960 304 960 l 464 960 q 578 938 525 960 q 672 876 632 915 q 734 783 711 836 q 757 671 757 731 l 757 289 q 734 176 757 229 q 672 84 711 124 q 578 22 632 44 q 464 0 525 0 l 365 0 m 604 671 q 593 724 604 699 q 563 769 582 750 q 519 799 544 788 q 464 810 493 810 l 365 810 q 310 799 336 810 q 266 769 285 788 q 236 724 247 750 q 225 671 225 699 l 225 289 q 236 235 225 261 q 266 191 247 210 q 310 161 285 172 q 365 150 336 150 l 464 150 q 519 161 493 150 q 563 191 544 172 q 593 235 582 210 q 604 289 604 261 l 604 671 z "},"1":{"ha":799,"x_min":206,"x_max":518,"o":"m 206 960 l 518 960 l 518 0 l 364 0 l 364 807 l 206 807 l 206 960 z "},"2":{"ha":799,"x_min":60,"x_max":768,"o":"m 60 286 q 82 396 60 344 q 143 485 104 447 q 234 546 182 524 q 344 568 286 568 l 496 568 q 578 603 546 568 q 611 688 611 638 q 578 772 611 738 q 496 807 546 807 l 132 807 l 132 960 l 496 960 q 602 938 553 960 q 688 880 651 917 q 747 794 725 843 q 768 688 768 744 q 747 583 768 632 q 688 497 725 533 q 602 438 651 460 q 496 417 553 417 l 344 417 q 292 406 317 417 q 251 378 268 396 q 223 336 233 360 q 213 286 213 313 l 213 154 l 768 154 l 768 0 l 490 0 l 60 0 l 60 286 l 60 286 z "},"3":{"ha":799,"x_min":68,"x_max":733,"o":"m 529 688 q 494 772 529 738 q 410 807 460 807 l 68 807 l 68 960 l 410 960 q 517 938 467 960 q 603 880 567 917 q 662 794 640 843 q 683 688 683 744 q 618 511 683 585 q 702 414 671 474 q 733 286 733 354 q 711 174 733 226 q 650 83 689 122 q 559 22 611 44 q 449 0 507 0 l 71 0 l 71 154 l 449 154 q 542 192 504 154 q 581 286 581 231 q 570 336 581 313 q 542 378 560 360 q 501 406 525 396 q 449 417 476 417 l 283 417 l 283 568 l 410 568 q 494 603 460 568 q 529 688 529 638 z "},"4":{"ha":799,"x_min":72,"x_max":689,"o":"m 689 0 l 535 0 l 535 376 l 365 376 q 251 399 304 376 q 158 463 197 422 q 95 556 118 503 q 72 671 72 610 l 72 960 l 225 960 l 225 671 q 236 617 225 642 q 266 572 247 592 q 310 542 285 553 q 365 531 336 531 l 535 531 l 535 960 l 689 960 l 689 0 z "},"5":{"ha":799,"x_min":88,"x_max":743,"o":"m 88 392 l 88 960 l 465 960 l 743 960 l 743 806 l 240 806 l 240 543 l 471 543 q 577 522 528 543 q 663 463 626 500 q 722 377 700 426 q 743 272 743 328 q 722 166 743 215 q 663 80 700 117 q 577 22 626 43 q 471 0 528 0 l 88 0 l 88 153 l 471 153 q 553 188 521 153 q 586 272 586 222 q 553 357 586 322 q 471 392 521 392 l 88 392 z "},"6":{"ha":799,"x_min":85,"x_max":775,"o":"m 378 0 q 263 22 317 0 q 170 84 210 44 q 108 176 131 124 q 85 289 85 229 l 85 608 q 112 746 85 682 q 186 857 139 810 q 297 932 233 904 q 435 960 361 960 l 713 960 l 713 804 l 435 804 q 358 789 394 804 q 295 747 322 774 q 253 685 268 721 q 238 608 238 649 l 238 583 l 482 583 q 597 560 543 583 q 690 497 650 538 q 752 403 729 457 q 775 289 775 350 q 752 176 775 229 q 690 84 729 124 q 597 22 650 44 q 482 0 543 0 l 378 0 m 238 289 q 249 235 238 261 q 278 191 260 210 q 323 161 297 172 q 378 150 349 150 l 482 150 q 537 161 511 150 q 581 191 563 172 q 611 235 600 210 q 622 289 622 261 q 611 343 622 318 q 581 388 600 368 q 537 418 563 407 q 482 429 511 429 l 238 429 l 238 289 z "},"7":{"ha":799,"x_min":90,"x_max":699,"o":"m 699 960 l 699 824 l 374 0 l 211 0 l 521 806 l 90 806 l 90 960 l 699 960 z "},"8":{"ha":799,"x_min":28,"x_max":796,"o":"m 472 960 q 579 938 529 960 q 666 880 629 917 q 724 794 703 843 q 746 688 746 744 q 681 511 746 585 q 765 414 733 474 q 796 286 796 354 q 774 174 796 226 q 713 83 751 122 q 622 22 674 44 q 511 0 569 0 l 313 0 q 202 22 254 0 q 111 83 150 44 q 50 174 72 122 q 28 286 28 226 q 59 414 28 354 q 143 511 90 474 q 78 688 78 585 q 99 794 78 744 q 158 880 121 843 q 244 938 194 917 q 351 960 294 960 l 472 960 m 511 154 q 605 192 567 154 q 643 286 643 231 q 633 336 643 313 q 605 378 622 360 q 563 406 588 396 q 511 417 539 417 l 313 417 q 260 406 285 417 q 219 378 236 396 q 191 336 201 360 q 181 286 181 313 q 219 192 181 231 q 313 154 257 154 l 511 154 m 232 688 q 267 603 232 638 q 351 568 301 568 l 472 568 q 557 603 522 568 q 592 688 592 638 q 557 772 592 738 q 472 807 522 807 l 351 807 q 267 772 301 807 q 232 688 232 738 z "},"9":{"ha":799,"x_min":43,"x_max":733,"o":"m 440 960 q 555 938 501 960 q 648 876 608 915 q 710 783 688 836 q 733 671 733 731 l 733 351 q 706 214 733 278 q 632 103 679 150 q 521 28 585 56 q 383 0 457 0 l 106 0 l 106 156 l 383 156 q 460 171 424 156 q 523 213 496 186 q 565 275 550 239 q 581 351 581 311 l 581 376 l 336 376 q 222 399 275 376 q 128 463 168 422 q 66 556 89 503 q 43 671 43 610 q 66 783 43 731 q 128 876 89 836 q 222 938 168 915 q 336 960 275 960 l 440 960 m 581 671 q 569 724 581 699 q 540 769 558 750 q 495 799 521 788 q 440 810 469 810 l 336 810 q 281 799 307 810 q 237 769 256 788 q 207 724 218 750 q 196 671 196 699 q 207 617 196 642 q 237 572 218 592 q 281 542 256 553 q 336 531 307 531 l 581 531 l 581 671 z "}," ":{"ha":397,"x_min":0,"x_max":0,"o":""},"E":{"ha":824,"x_min":83,"x_max":710,"o":"m 250 0 l 83 0 l 83 154 l 710 154 l 710 0 l 250 0 m 710 417 l 83 417 l 83 568 l 710 568 l 710 417 m 710 807 l 83 807 l 83 960 l 710 960 l 710 807 z "},"F":{"ha":786,"x_min":113,"x_max":740,"o":"m 268 0 l 113 0 l 113 417 l 113 571 l 113 804 l 113 844 l 113 960 l 740 960 l 740 804 l 268 804 l 268 571 l 506 571 l 506 417 l 268 417 l 268 0 z "},"G":{"ha":794,"x_min":8,"x_max":672,"o":"m 489 0 q 301 38 389 0 q 149 140 214 75 q 46 293 83 206 q 8 481 8 381 q 46 668 8 581 q 149 820 83 756 q 301 922 214 885 q 489 960 389 960 l 672 960 l 672 804 l 489 804 q 363 779 422 804 q 258 710 303 754 q 188 608 214 667 q 163 481 163 549 q 188 353 163 413 q 258 249 214 293 q 363 181 303 206 q 489 156 422 156 l 519 156 l 519 342 l 390 342 l 390 493 l 672 493 l 672 156 l 672 0 l 519 0 l 489 0 z "},"H":{"ha":1007,"x_min":113,"x_max":860,"o":"m 819 960 l 860 960 l 860 0 l 708 0 l 708 418 l 265 418 l 265 0 l 113 0 l 113 960 l 265 960 l 265 571 l 708 571 l 708 960 l 819 960 z "},"I":{"ha":417,"x_min":119,"x_max":274,"o":"m 119 960 l 274 960 l 274 0 l 171 0 l 171 0 l 119 0 l 119 960 z "},"J":{"ha":515,"x_min":-3,"x_max":389,"o":"m 236 960 l 389 960 l 389 351 q 362 214 389 278 q 288 103 335 150 q 176 28 240 56 q 39 0 113 0 l -3 0 l -3 156 l 39 156 q 115 171 79 156 q 178 213 151 186 q 221 275 206 239 q 236 351 236 311 l 236 960 z "},"K":{"ha":956,"x_min":113,"x_max":929,"o":"m 929 960 l 442 446 l 929 0 l 699 0 l 339 333 l 339 335 l 264 254 l 264 0 l 113 0 l 113 960 l 264 960 l 264 736 l 264 571 l 264 481 l 717 960 l 929 960 z "},"L":{"ha":656,"x_min":113,"x_max":619,"o":"m 619 156 l 619 0 l 267 0 l 267 0 l 163 0 l 113 0 l 113 960 l 267 960 l 267 156 l 619 156 z "},"M":{"ha":1200,"x_min":113,"x_max":1231,"o":"m 265 0 l 113 0 l 113 960 l 189 960 l 393 678 l 393 960 l 472 960 l 1231 0 l 1039 0 l 544 628 l 544 467 l 883 0 l 693 0 l 544 203 l 544 0 l 393 0 l 393 417 l 265 593 l 265 0 z "},"N":{"ha":1019,"x_min":104,"x_max":875,"o":"m 204 0 l 104 0 l 104 960 l 332 960 l 332 957 l 721 193 l 721 960 l 875 960 l 875 628 l 875 0 l 825 0 l 819 0 l 728 0 l 647 0 l 258 761 l 258 628 l 258 0 l 204 0 z "},"O":{"ha":1028,"x_min":10,"x_max":972,"o":"m 972 481 q 935 293 972 381 q 832 140 897 206 q 679 38 767 75 q 492 0 592 0 q 304 38 392 0 q 151 140 217 75 q 48 293 86 206 q 10 481 10 381 q 48 668 10 581 q 151 820 86 756 q 304 922 217 885 q 492 960 392 960 q 679 922 592 960 q 832 820 767 885 q 935 668 897 756 q 972 481 972 581 m 492 156 q 618 181 558 156 q 723 249 678 206 q 794 353 768 293 q 819 481 819 413 q 794 608 819 549 q 723 710 768 667 q 618 779 678 754 q 492 804 558 804 q 365 779 424 804 q 261 710 306 754 q 191 608 217 667 q 165 481 165 549 q 191 353 165 413 q 261 249 217 293 q 365 181 306 206 q 492 156 424 156 z "},"P":{"ha":847,"x_min":103,"x_max":811,"o":"m 518 960 q 633 938 579 960 q 726 876 686 915 q 788 783 765 836 q 811 671 811 731 q 788 556 811 610 q 726 463 765 503 q 633 399 686 422 q 518 376 579 376 l 256 376 l 256 0 l 103 0 l 103 376 l 103 531 l 256 531 l 518 531 q 573 542 547 531 q 617 572 599 553 q 647 617 636 592 q 658 671 658 642 q 647 724 658 699 q 617 769 636 750 q 573 799 599 788 q 518 810 547 810 l 256 810 l 103 810 l 103 960 l 256 960 l 518 960 z "},"Q":{"ha":1028,"x_min":10,"x_max":972,"o":"m 972 481 q 942 311 972 390 q 858 169 911 232 q 731 63 804 106 q 574 7 658 21 l 574 -144 l 421 -144 l 421 6 q 258 60 333 18 q 128 165 183 101 q 42 308 74 228 q 10 481 10 389 q 48 668 10 581 q 151 820 86 756 q 304 922 217 885 q 492 960 392 960 q 679 922 592 960 q 832 820 767 885 q 935 668 897 756 q 972 481 972 581 m 574 296 l 574 165 q 672 207 626 178 q 749 278 717 236 q 801 371 782 319 q 819 481 819 422 q 794 608 819 549 q 723 710 768 667 q 618 779 678 754 q 492 804 558 804 q 365 779 424 804 q 261 710 306 754 q 191 608 217 667 q 165 481 165 549 q 185 368 165 421 q 238 274 204 315 q 319 203 272 232 q 421 163 365 175 l 421 296 l 574 296 z "},"R":{"ha":878,"x_min":103,"x_max":813,"o":"m 813 667 q 796 575 811 619 q 752 493 781 531 q 685 428 724 456 q 599 389 646 401 l 813 0 l 638 0 l 428 376 l 399 376 l 257 376 l 257 0 l 103 0 l 103 531 l 257 531 l 519 531 q 574 542 549 531 q 618 572 599 553 q 649 617 638 592 q 660 671 660 642 q 649 724 660 699 q 618 769 638 750 q 574 799 599 788 q 519 810 549 810 l 257 810 l 103 810 l 103 960 l 257 960 l 519 960 q 623 941 574 960 q 711 889 672 922 q 776 810 750 856 q 808 710 801 764 q 811 688 810 699 q 813 667 813 678 z "},"S":{"ha":969,"x_min":26,"x_max":926,"o":"m 926 286 q 904 174 926 226 q 843 83 882 122 q 752 22 804 44 q 642 0 700 0 l 304 0 l 136 0 l 136 154 l 642 154 q 735 192 697 154 q 774 286 774 231 q 763 336 774 313 q 735 378 753 360 q 694 406 718 396 q 642 417 669 417 l 299 417 q 192 438 242 417 q 106 497 143 460 q 48 583 69 533 q 26 688 26 632 q 48 794 26 744 q 106 880 69 843 q 192 938 143 917 q 299 960 242 960 l 663 960 l 663 807 l 299 807 q 216 772 249 807 q 183 688 183 738 q 216 603 183 638 q 299 568 249 568 l 642 568 q 752 546 700 568 q 843 485 804 524 q 904 396 882 447 q 926 286 926 344 z "},"T":{"ha":675,"x_min":10,"x_max":631,"o":"m 397 960 l 631 960 l 631 860 l 631 807 l 397 807 l 397 0 l 297 0 l 243 0 l 243 807 l 10 807 l 10 960 l 243 960 l 397 960 z "},"U":{"ha":900,"x_min":92,"x_max":775,"o":"m 775 342 q 748 208 775 271 q 674 100 721 146 q 565 27 628 54 q 432 0 503 0 q 299 27 361 0 q 192 100 238 54 q 119 208 146 146 q 92 342 92 271 l 92 797 l 92 960 l 246 960 l 246 797 l 246 342 q 260 267 246 301 q 300 208 275 233 q 359 169 325 183 q 432 154 393 154 q 506 169 471 154 q 566 208 540 183 q 606 267 592 233 q 621 342 621 301 l 621 960 l 775 960 l 775 342 z "},"V":{"ha":953,"x_min":-39,"x_max":801,"o":"m 647 332 l 647 960 l 801 960 l 801 0 l 701 0 l -39 960 l 157 960 l 647 332 z "},"W":{"ha":1226,"x_min":-36,"x_max":1083,"o":"m 724 0 l -36 960 l -36 960 l 156 960 l 647 332 l 647 493 l 308 960 l 446 960 l 499 960 l 647 756 l 647 960 l 765 960 l 803 960 l 803 544 l 929 367 l 929 960 l 1083 960 l 1083 0 l 1006 0 l 803 285 l 803 0 l 724 0 z "},"X":{"ha":846,"x_min":6,"x_max":824,"o":"m 415 621 l 635 960 l 821 960 l 506 481 l 824 0 l 638 0 l 415 342 l 190 0 l 6 0 l 321 481 l 7 960 l 192 960 l 415 621 z "},"Y":{"ha":940,"x_min":-42,"x_max":944,"o":"m 372 311 l -42 960 l 83 960 l 140 960 l 449 476 l 760 960 l 944 960 l 528 311 l 528 0 l 431 0 l 372 0 l 372 311 z "},"Z":{"ha":751,"x_min":53,"x_max":675,"o":"m 675 960 l 675 824 l 263 153 l 675 153 l 675 0 l 53 0 l 53 100 l 483 806 l 53 806 l 53 960 l 675 960 z "},"a":{"ha":931,"x_min":131,"x_max":968,"o":"m 178 0 l 131 0 l 131 960 l 229 960 l 968 3 l 968 0 l 778 0 l 283 628 l 283 0 l 229 0 l 178 0 z "},"b":{"ha":821,"x_min":94,"x_max":760,"o":"m 556 688 q 521 772 556 738 q 436 807 486 807 l 94 807 l 94 960 l 436 960 q 543 938 493 960 q 630 880 593 917 q 688 794 667 843 q 710 688 710 744 q 644 511 710 585 q 728 414 697 474 q 760 286 760 354 q 738 174 760 226 q 676 83 715 122 q 585 22 638 44 q 475 0 533 0 l 97 0 l 97 154 l 475 154 q 569 192 531 154 q 607 286 607 231 q 597 336 607 313 q 569 378 586 360 q 527 406 551 396 q 475 417 503 417 l 94 417 l 94 568 l 436 568 q 521 603 486 568 q 556 688 556 638 z "},"c":{"ha":782,"x_min":17,"x_max":711,"o":"m 497 804 q 370 779 429 804 q 267 710 311 754 q 198 608 224 667 q 172 481 172 549 q 198 353 172 413 q 267 249 224 293 q 370 181 311 206 q 497 156 429 156 l 711 156 l 711 0 l 497 0 q 310 38 397 0 q 157 140 222 75 q 54 293 92 206 q 17 481 17 381 q 54 668 17 581 q 157 820 92 756 q 310 922 222 885 q 497 960 397 960 l 711 960 l 711 804 l 497 804 z "},"d":{"ha":1044,"x_min":76,"x_max":990,"o":"m 508 960 q 696 922 608 960 q 849 820 783 885 q 953 668 915 756 q 990 481 990 581 q 953 293 990 381 q 849 140 915 206 q 696 38 783 75 q 508 0 608 0 l 425 0 l 172 0 l 131 0 l 76 0 l 76 156 l 131 156 l 131 804 l 76 804 l 76 960 l 131 960 l 508 960 m 508 156 q 636 181 576 156 q 740 249 696 206 q 809 353 783 293 q 835 481 835 413 q 809 608 835 549 q 740 710 783 667 q 636 779 696 754 q 508 804 576 804 l 286 804 l 286 156 l 353 156 l 508 156 z "},"e":{"ha":829,"x_min":94,"x_max":721,"o":"m 261 0 l 94 0 l 94 154 l 721 154 l 721 0 l 261 0 m 721 417 l 94 417 l 94 568 l 721 568 l 721 417 m 721 807 l 94 807 l 94 960 l 721 960 l 721 807 z "},"f":{"ha":792,"x_min":124,"x_max":751,"o":"m 279 0 l 124 0 l 124 417 l 124 571 l 124 804 l 124 844 l 124 960 l 751 960 l 751 804 l 279 804 l 279 571 l 517 571 l 517 417 l 279 417 l 279 0 z "},"g":{"ha":800,"x_min":21,"x_max":685,"o":"m 501 0 q 314 38 401 0 q 161 140 226 75 q 58 293 96 206 q 21 481 21 381 q 58 668 21 581 q 161 820 96 756 q 314 922 226 885 q 501 960 401 960 l 685 960 l 685 804 l 501 804 q 375 779 435 804 q 271 710 315 754 q 201 608 226 667 q 175 481 175 549 q 201 353 175 413 q 271 249 226 293 q 375 181 315 206 q 501 156 435 156 l 532 156 l 532 342 l 403 342 l 403 493 l 685 493 l 685 156 l 685 0 l 532 0 l 501 0 z "},"h":{"ha":1013,"x_min":124,"x_max":871,"o":"m 831 960 l 871 960 l 871 0 l 719 0 l 719 418 l 276 418 l 276 0 l 124 0 l 124 960 l 276 960 l 276 571 l 719 571 l 719 960 l 831 960 z "},"i":{"ha":422,"x_min":131,"x_max":285,"o":"m 131 960 l 285 960 l 285 0 l 182 0 l 182 0 l 131 0 l 131 960 z "},"j":{"ha":519,"x_min":8,"x_max":400,"o":"m 247 960 l 400 960 l 400 351 q 373 214 400 278 q 299 103 346 150 q 188 28 251 56 q 50 0 124 0 l 8 0 l 8 156 l 50 156 q 126 171 90 156 q 190 213 163 186 q 232 275 217 239 q 247 351 247 311 l 247 960 z "},"k":{"ha":961,"x_min":124,"x_max":940,"o":"m 940 960 l 453 446 l 940 0 l 710 0 l 350 333 l 350 335 l 275 254 l 275 0 l 124 0 l 124 960 l 275 960 l 275 736 l 275 571 l 275 481 l 728 960 l 940 960 z "},"l":{"ha":661,"x_min":124,"x_max":631,"o":"m 631 156 l 631 0 l 278 0 l 278 0 l 174 0 l 124 0 l 124 960 l 278 960 l 278 156 l 631 156 z "},"m":{"ha":1204,"x_min":124,"x_max":1242,"o":"m 276 0 l 124 0 l 124 960 l 200 960 l 404 678 l 404 960 l 483 960 l 1242 0 l 1050 0 l 556 628 l 556 467 l 894 0 l 704 0 l 556 203 l 556 0 l 404 0 l 404 417 l 276 593 l 276 0 z "},"n":{"ha":1026,"x_min":117,"x_max":888,"o":"m 217 0 l 117 0 l 117 960 l 344 960 l 344 957 l 733 193 l 733 960 l 888 960 l 888 628 l 888 0 l 838 0 l 832 0 l 740 0 l 660 0 l 271 761 l 271 628 l 271 0 l 217 0 z "},"o":{"ha":1032,"x_min":21,"x_max":983,"o":"m 983 481 q 946 293 983 381 q 843 140 908 206 q 690 38 778 75 q 503 0 603 0 q 315 38 403 0 q 163 140 228 75 q 59 293 97 206 q 21 481 21 381 q 59 668 21 581 q 163 820 97 756 q 315 922 228 885 q 503 960 403 960 q 690 922 603 960 q 843 820 778 885 q 946 668 908 756 q 983 481 983 581 m 503 156 q 629 181 569 156 q 734 249 689 206 q 805 353 779 293 q 831 481 831 413 q 805 608 831 549 q 734 710 779 667 q 629 779 689 754 q 503 804 569 804 q 376 779 435 804 q 272 710 317 754 q 202 608 228 667 q 176 481 176 549 q 202 353 176 413 q 272 249 228 293 q 376 181 317 206 q 503 156 435 156 z "},"p":{"ha":851,"x_min":114,"x_max":822,"o":"m 529 960 q 644 938 590 960 q 737 876 697 915 q 799 783 776 836 q 822 671 822 731 q 799 556 822 610 q 737 463 776 503 q 644 399 697 422 q 529 376 590 376 l 267 376 l 267 0 l 114 0 l 114 376 l 114 531 l 267 531 l 529 531 q 584 542 558 531 q 628 572 610 553 q 658 617 647 592 q 669 671 669 642 q 658 724 669 699 q 628 769 647 750 q 584 799 610 788 q 529 810 558 810 l 267 810 l 114 810 l 114 960 l 267 960 l 529 960 z "},"q":{"ha":1032,"x_min":21,"x_max":983,"o":"m 983 481 q 953 311 983 390 q 869 169 922 232 q 742 63 815 106 q 585 7 669 21 l 585 -144 l 432 -144 l 432 6 q 269 60 344 18 q 140 165 194 101 q 53 308 85 228 q 21 481 21 389 q 59 668 21 581 q 163 820 97 756 q 315 922 228 885 q 503 960 403 960 q 690 922 603 960 q 843 820 778 885 q 946 668 908 756 q 983 481 983 581 m 585 296 l 585 165 q 683 207 638 178 q 760 278 728 236 q 812 371 793 319 q 831 481 831 422 q 805 608 831 549 q 734 710 779 667 q 629 779 689 754 q 503 804 569 804 q 376 779 435 804 q 272 710 317 754 q 202 608 228 667 q 176 481 176 549 q 196 368 176 421 q 249 274 215 315 q 330 203 283 232 q 432 163 376 175 l 432 296 l 585 296 z "},"r":{"ha":882,"x_min":114,"x_max":824,"o":"m 824 667 q 807 575 822 619 q 763 493 792 531 q 696 428 735 456 q 610 389 657 401 l 824 0 l 649 0 l 439 376 l 410 376 l 268 376 l 268 0 l 114 0 l 114 531 l 268 531 l 531 531 q 585 542 560 531 q 629 572 610 553 q 660 617 649 592 q 671 671 671 642 q 660 724 671 699 q 629 769 649 750 q 585 799 610 788 q 531 810 560 810 l 268 810 l 114 810 l 114 960 l 268 960 l 531 960 q 634 941 585 960 q 722 889 683 922 q 787 810 761 856 q 819 710 813 764 q 822 688 821 699 q 824 667 824 678 z "},"s":{"ha":975,"x_min":39,"x_max":939,"o":"m 939 286 q 917 174 939 226 q 856 83 894 122 q 765 22 817 44 q 654 0 713 0 l 317 0 l 149 0 l 149 154 l 654 154 q 748 192 710 154 q 786 286 786 231 q 776 336 786 313 q 748 378 765 360 q 706 406 731 396 q 654 417 682 417 l 311 417 q 205 438 254 417 q 119 497 156 460 q 60 583 82 533 q 39 688 39 632 q 60 794 39 744 q 119 880 82 843 q 205 938 156 917 q 311 960 254 960 l 675 960 l 675 807 l 311 807 q 228 772 261 807 q 196 688 196 738 q 228 603 196 638 q 311 568 261 568 l 654 568 q 765 546 713 568 q 856 485 817 524 q 917 396 894 447 q 939 286 939 344 z "},"t":{"ha":682,"x_min":22,"x_max":643,"o":"m 410 960 l 643 960 l 643 860 l 643 807 l 410 807 l 410 0 l 310 0 l 256 0 l 256 807 l 22 807 l 22 960 l 256 960 l 410 960 z "},"u":{"ha":906,"x_min":104,"x_max":788,"o":"m 788 342 q 760 208 788 271 q 687 100 733 146 q 578 27 640 54 q 444 0 515 0 q 312 27 374 0 q 204 100 250 54 q 131 208 158 146 q 104 342 104 271 l 104 797 l 104 960 l 258 960 l 258 797 l 258 342 q 273 267 258 301 q 313 208 288 233 q 372 169 338 183 q 444 154 406 154 q 518 169 483 154 q 578 208 553 183 q 619 267 604 233 q 633 342 633 301 l 633 960 l 788 960 l 788 342 z "},"v":{"ha":958,"x_min":-28,"x_max":813,"o":"m 658 332 l 658 960 l 813 960 l 813 0 l 713 0 l -28 960 l 168 960 l 658 332 z "},"w":{"ha":1232,"x_min":-25,"x_max":1094,"o":"m 735 0 l -25 960 l -25 960 l 167 960 l 658 332 l 658 493 l 319 960 l 457 960 l 510 960 l 658 756 l 658 960 l 776 960 l 814 960 l 814 544 l 940 367 l 940 960 l 1094 960 l 1094 0 l 1017 0 l 814 285 l 814 0 l 735 0 z "},"x":{"ha":851,"x_min":18,"x_max":836,"o":"m 428 621 l 647 960 l 833 960 l 518 481 l 836 0 l 650 0 l 428 342 l 203 0 l 18 0 l 333 481 l 19 960 l 204 960 l 428 621 z "},"y":{"ha":946,"x_min":-29,"x_max":957,"o":"m 385 311 l -29 960 l 96 960 l 153 960 l 461 476 l 772 960 l 957 960 l 540 311 l 540 0 l 443 0 l 385 0 l 385 311 z "},"z":{"ha":758,"x_min":65,"x_max":688,"o":"m 688 960 l 688 824 l 275 153 l 688 153 l 688 0 l 65 0 l 65 100 l 496 806 l 65 806 l 65 960 l 688 960 z "},"D":{"ha":1039,"x_min":65,"x_max":979,"o":"m 497 960 q 685 922 597 960 q 838 820 772 885 q 942 668 904 756 q 979 481 979 581 q 942 293 979 381 q 838 140 904 206 q 685 38 772 75 q 497 0 597 0 l 414 0 l 161 0 l 119 0 l 65 0 l 65 156 l 119 156 l 119 804 l 65 804 l 65 960 l 119 960 l 497 960 m 497 156 q 625 181 565 156 q 728 249 685 206 q 798 353 772 293 q 824 481 824 413 q 798 608 824 549 q 728 710 772 667 q 625 779 685 754 q 497 804 565 804 l 275 804 l 275 156 l 342 156 l 497 156 z "},"!":{"ha":407,"x_min":117,"x_max":271,"o":"m 117 960 l 271 960 l 271 249 l 117 249 l 117 960 m 117 0 l 117 154 l 271 154 l 271 0 l 117 0 z "},"\"":{"ha":446,"x_min":38,"x_max":386,"o":"m 38 697 l 38 960 l 192 960 l 192 697 l 38 697 m 232 697 l 232 960 l 386 960 l 386 697 l 232 697 z "},"'":{"ha":251,"x_min":38,"x_max":192,"o":"m 38 697 l 38 960 l 192 960 l 192 697 l 38 697 z "},",":{"ha":208,"x_min":24,"x_max":178,"o":"m 24 -108 l 24 154 l 178 154 l 178 -108 l 24 -108 z "},".":{"ha":200,"x_min":19,"x_max":174,"o":"m 19 0 l 19 154 l 174 154 l 174 0 l 19 0 z "},":":{"ha":278,"x_min":57,"x_max":211,"o":"m 57 0 l 57 154 l 211 154 l 211 0 l 57 0 m 57 806 l 57 960 l 211 960 l 211 806 l 57 806 z "},";":{"ha":288,"x_min":63,"x_max":217,"o":"m 63 -108 l 63 154 l 217 154 l 217 -108 l 63 -108 m 63 806 l 63 960 l 217 960 l 217 806 l 63 806 z "},"?":{"ha":761,"x_min":65,"x_max":729,"o":"m 67 286 q 89 396 67 344 q 150 485 111 447 q 241 546 189 524 q 351 568 293 568 l 457 568 q 540 603 507 568 q 572 688 572 638 q 540 772 572 738 q 457 807 507 807 l 93 807 l 93 960 l 457 960 q 563 938 514 960 q 649 880 613 917 q 708 794 686 843 q 729 688 729 744 q 708 583 729 632 q 649 497 686 533 q 563 438 613 460 q 457 417 514 417 l 351 417 q 299 406 324 417 q 258 378 275 396 q 230 336 240 360 q 219 286 219 313 l 219 217 l 67 217 l 67 286 m 65 0 l 65 154 l 219 154 l 219 0 l 65 0 z "},"B":{"ha":814,"x_min":82,"x_max":747,"o":"m 543 688 q 508 772 543 738 q 424 807 474 807 l 82 807 l 82 960 l 424 960 q 531 938 481 960 q 617 880 581 917 q 676 794 654 843 q 697 688 697 744 q 632 511 697 585 q 716 414 685 474 q 747 286 747 354 q 725 174 747 226 q 664 83 703 122 q 573 22 625 44 q 463 0 521 0 l 85 0 l 85 154 l 463 154 q 556 192 518 154 q 594 286 594 231 q 584 336 594 313 q 556 378 574 360 q 515 406 539 396 q 463 417 490 417 l 82 417 l 82 568 l 424 568 q 508 603 474 568 q 543 688 543 638 z "},"C":{"ha":776,"x_min":6,"x_max":700,"o":"m 486 804 q 359 779 418 804 q 256 710 300 754 q 187 608 213 667 q 161 481 161 549 q 187 353 161 413 q 256 249 213 293 q 359 181 300 206 q 486 156 418 156 l 700 156 l 700 0 l 486 0 q 299 38 386 0 q 146 140 211 75 q 43 293 81 206 q 6 481 6 381 q 43 668 6 581 q 146 820 81 756 q 299 922 211 885 q 486 960 386 960 l 700 960 l 700 804 l 486 804 z "},"A":{"ha":925,"x_min":119,"x_max":957,"o":"m 167 0 l 119 0 l 119 960 l 218 960 l 957 3 l 957 0 l 767 0 l 272 628 l 272 0 l 218 0 l 167 0 z "}}}
